<svg preserveAspectRatio="none" overflow="visible" style="display: block;" width="612.5" height="10" viewBox="0 0 612.5 10" fill="none" xmlns="http://www.w3.org/2000/svg">
<g id="Morse Code">
<rect id="Rectangle 51" x="102.5" width="26.6667" height="10" rx="5" fill="#0928B1"/>
<rect id="Rectangle 57" x="151.25" width="26.6667" height="10" rx="5" fill="#0928B1"/>
<rect id="Rectangle 59" x="270" width="26.6667" height="10" rx="5" fill="#0928B1"/>
<rect id="Rectangle 60" x="302.5" width="26.6667" height="10" rx="5" fill="#0928B1"/>
<rect id="Rectangle 61" x="335" width="26.6667" height="10" rx="5" fill="#0928B1"/>
<rect id="Rectangle 62" x="402.5" width="26.6667" height="10" rx="5" fill="#0928B1"/>
<rect id="Rectangle 63" x="486.25" width="26.6667" height="10" rx="5" fill="#0928B1"/>
<rect id="Rectangle 64" x="553.75" width="26.6667" height="10" rx="5" fill="#0928B1"/>
<rect id="Rectangle 58" x="218.75" width="26.6667" height="10" rx="5" fill="#0928B1"/>
<ellipse id="Ellipse 33" cx="5" cy="5" rx="5" ry="5" fill="#3ED628"/>
<ellipse id="Ellipse 34" cx="21.25" cy="5" rx="5" ry="5" fill="#3ED628"/>
<ellipse id="Ellipse 35" cx="37.5" cy="5" rx="5" ry="5" fill="#3ED628"/>
<ellipse id="Ellipse 37" cx="140" cy="5" rx="5" ry="5" fill="#3ED628"/>
<ellipse id="Ellipse 38" cx="188.75" cy="5" rx="5" ry="5" fill="#3ED628"/>
<ellipse id="Ellipse 39" cx="391.25" cy="5" rx="5" ry="5" fill="#3ED628"/>
<ellipse id="Ellipse 40" cx="440" cy="5" rx="5" ry="5" fill="#3ED628"/>
<ellipse id="Ellipse 41" cx="475" cy="5" rx="5" ry="5" fill="#3ED628"/>
<ellipse id="Ellipse 43" cx="591.25" cy="5" rx="5" ry="5" fill="#3ED628"/>
<ellipse id="Ellipse 44" cx="607.5" cy="5" rx="5" ry="5" fill="#3ED628"/>
<ellipse id="Ellipse 42" cx="542.5" cy="5" rx="5" ry="5" fill="#3ED628"/>
<ellipse id="Ellipse 36" cx="72.5" cy="5" rx="5" ry="5" fill="#3ED628"/>
</g>
</svg>
